<svg width="291" height="266" viewBox="0 0 291 266" fill="none" xmlns="http://www.w3.org/2000/svg">
<g filter="url(#filter0_d_3004_16751)">
<rect x="60.5" y="60" width="170" height="146" rx="16" fill="#232940"/>
</g>
<path d="M171.532 135.509C171.532 135.307 171.465 135.105 171.399 134.937C171.399 134.937 171.399 134.903 171.365 134.903C171.265 134.735 171.132 134.6 170.966 134.499L170.933 134.465H170.9C170.866 134.465 170.866 134.432 170.833 134.432L159.889 128.874V125.876H160.289C160.987 125.876 161.553 125.303 161.553 124.596C161.553 123.888 160.987 123.316 160.289 123.316H158.625C157.927 123.316 157.361 123.888 157.361 124.596V127.594L153.204 125.505V112.368H153.603C154.301 112.368 154.867 111.796 154.867 111.088C154.867 110.381 154.301 109.808 153.603 109.808H151.94C151.241 109.808 150.676 110.381 150.676 111.088V124.192L146.518 122.103V98.8947H150.243C150.942 98.8947 151.507 98.3221 151.507 97.6147C151.507 96.9074 150.942 96.3347 150.243 96.3347H140.264C139.566 96.3347 139 96.9074 139 97.6147C139 98.3221 139.566 98.8947 140.264 98.8947H144.089V122.103L139.932 124.192V111.122C139.932 110.415 139.366 109.842 138.668 109.842H137.004C136.306 109.842 135.74 110.415 135.74 111.122C135.74 111.829 136.306 112.402 137.004 112.402H137.437V125.505L133.279 127.594V124.596C133.279 123.888 132.713 123.316 132.015 123.316H130.352C129.653 123.316 129.088 123.888 129.088 124.596C129.088 125.303 129.653 125.876 130.352 125.876H130.784V128.874L119.841 134.432C119.807 134.432 119.807 134.465 119.774 134.465H119.741L119.708 134.499C119.541 134.6 119.408 134.735 119.308 134.903C119.308 134.903 119.308 134.937 119.275 134.937C119.175 135.105 119.142 135.307 119.142 135.509V159.088C119.142 159.56 119.408 159.998 119.841 160.234L144.788 172.865C144.821 172.865 144.821 172.865 144.855 172.865C145.021 172.933 145.187 173 145.353 173C145.52 173 145.686 172.966 145.852 172.865C145.886 172.865 145.886 172.865 145.919 172.865L170.866 160.234C171.299 160.032 171.565 159.594 171.565 159.088V135.509H171.532ZM169.037 158.314L146.584 169.699V148.949L169.037 137.564V158.314ZM130.784 131.669V139.383L123.167 135.543L130.784 131.669ZM121.637 137.564L144.089 148.949V169.699L121.637 158.314V137.564ZM159.889 139.383V131.669L167.507 135.509L159.889 139.383ZM157.395 140.629L153.237 142.718V128.267L157.395 130.356V140.629ZM150.742 143.998L146.584 146.086V124.933L150.742 127.021V143.998ZM144.089 146.12L139.932 144.032V127.055L144.089 124.966V146.12ZM137.437 142.752L133.279 140.663V130.423L137.437 128.335V142.752Z" fill="url(#paint0_radial_3004_16751)"/>
<path d="M125.396 123.316H123.732C123.034 123.316 122.468 123.888 122.468 124.596C122.468 125.303 123.034 125.876 123.732 125.876H125.396C126.094 125.876 126.66 125.303 126.66 124.596C126.66 123.888 126.061 123.316 125.396 123.316Z" fill="url(#paint1_radial_3004_16751)"/>
<path d="M125.396 109.842H123.134C122.601 107.888 120.839 106.474 118.743 106.474C116.215 106.474 114.153 108.562 114.153 111.122C114.153 113.682 116.215 115.771 118.743 115.771C120.839 115.771 122.568 114.356 123.134 112.402H125.396C126.094 112.402 126.66 111.829 126.66 111.122C126.66 110.415 126.061 109.842 125.396 109.842ZM116.647 111.122C116.647 109.977 117.579 109.034 118.71 109.034C119.841 109.034 120.772 109.977 120.772 111.122C120.772 112.267 119.874 113.211 118.743 113.211C117.612 113.211 116.647 112.267 116.647 111.122Z" fill="url(#paint2_radial_3004_16751)"/>
<path d="M130.385 109.842C129.687 109.842 129.121 110.415 129.121 111.122C129.121 111.829 129.687 112.402 130.385 112.402H132.048C132.747 112.402 133.312 111.829 133.312 111.122C133.312 110.415 132.713 109.842 132.048 109.842H130.385Z" fill="url(#paint3_radial_3004_16751)"/>
<path d="M135.375 98.8947C136.073 98.8947 136.639 98.3221 136.639 97.6147C136.639 96.9074 136.04 96.3684 135.375 96.3684H133.711C133.013 96.3684 132.447 96.9411 132.447 97.6484C132.447 98.3558 133.013 98.9284 133.711 98.9284H135.375V98.8947Z" fill="url(#paint4_radial_3004_16751)"/>
<path d="M112.09 129.211C114.186 129.211 115.916 127.796 116.481 125.842H118.743C119.441 125.842 120.007 125.269 120.007 124.562C120.007 123.855 119.408 123.316 118.743 123.316H116.481C115.949 121.362 114.186 119.947 112.09 119.947C109.562 119.947 107.5 122.036 107.5 124.596C107.5 127.156 109.562 129.211 112.09 129.211ZM112.09 122.474C113.221 122.474 114.153 123.417 114.153 124.562C114.153 125.707 113.221 126.651 112.09 126.651C110.959 126.651 110.028 125.707 110.028 124.562C110.028 123.417 110.926 122.474 112.09 122.474Z" fill="url(#paint5_radial_3004_16751)"/>
<path d="M165.311 125.842H166.975C167.673 125.842 168.239 125.269 168.239 124.562C168.239 123.855 167.673 123.282 166.975 123.282H165.311C164.613 123.282 164.047 123.855 164.047 124.562C164.047 125.269 164.613 125.842 165.311 125.842Z" fill="url(#paint6_radial_3004_16751)"/>
<path d="M174.226 125.842C174.758 127.796 176.521 129.211 178.617 129.211C181.145 129.211 183.207 127.122 183.207 124.562C183.207 122.002 181.111 119.947 178.617 119.947C176.521 119.947 174.791 121.362 174.226 123.316H171.964C171.265 123.316 170.7 123.888 170.7 124.596C170.7 125.303 171.265 125.876 171.964 125.876H174.226V125.842ZM180.679 124.596C180.679 125.741 179.748 126.684 178.617 126.684C177.486 126.684 176.554 125.741 176.554 124.596C176.554 123.451 177.486 122.507 178.617 122.507C179.748 122.507 180.679 123.417 180.679 124.596Z" fill="url(#paint7_radial_3004_16751)"/>
<path d="M157.395 111.122C157.395 111.829 157.96 112.402 158.659 112.402H160.322C161.02 112.402 161.586 111.829 161.586 111.122C161.586 110.415 161.02 109.842 160.322 109.842H158.659C157.96 109.842 157.395 110.415 157.395 111.122Z" fill="url(#paint8_radial_3004_16751)"/>
<path d="M165.311 112.368H167.573C168.105 114.322 169.868 115.737 171.964 115.737C174.492 115.737 176.554 113.648 176.554 111.088C176.554 108.528 174.459 106.474 171.964 106.474C169.868 106.474 168.139 107.888 167.573 109.842H165.311C164.613 109.842 164.047 110.415 164.047 111.122C164.047 111.829 164.613 112.368 165.311 112.368ZM174.026 111.122C174.026 112.267 173.095 113.211 171.964 113.211C170.833 113.211 169.902 112.267 169.902 111.122C169.902 109.977 170.833 109.034 171.964 109.034C173.095 109.034 174.026 109.943 174.026 111.122Z" fill="url(#paint9_radial_3004_16751)"/>
<path d="M112.09 102.263C114.186 102.263 115.916 100.848 116.481 98.8947H128.722C129.42 98.8947 129.986 98.3221 129.986 97.6147C129.986 96.9074 129.387 96.3684 128.722 96.3684H116.448C115.916 94.4147 114.153 93 112.09 93C109.562 93 107.5 95.0884 107.5 97.6484C107.5 100.208 109.562 102.263 112.09 102.263ZM112.09 95.5263C113.221 95.5263 114.153 96.4695 114.153 97.6147C114.153 98.76 113.221 99.7368 112.09 99.7368C110.959 99.7368 110.028 98.7937 110.028 97.6484C110.028 96.5032 110.926 95.5263 112.09 95.5263Z" fill="url(#paint10_radial_3004_16751)"/>
<path d="M186.5 97.6484C186.5 95.0884 184.438 93 181.91 93C179.814 93 178.084 94.4147 177.519 96.3684H161.952C161.253 96.3684 160.688 96.9411 160.688 97.6484C160.688 98.3558 161.253 98.9284 161.952 98.9284H177.519C178.051 100.882 179.814 102.297 181.91 102.297C184.438 102.263 186.5 100.175 186.5 97.6484ZM181.943 99.7368C180.812 99.7368 179.881 98.7937 179.881 97.6484C179.881 96.5032 180.812 95.56 181.943 95.56C183.074 95.56 184.005 96.5032 184.005 97.6484C184.005 98.7937 183.074 99.7368 181.943 99.7368Z" fill="url(#paint11_radial_3004_16751)"/>
<path d="M156.996 96.3684H155.332C154.634 96.3684 154.068 96.9411 154.068 97.6484C154.068 98.3558 154.634 98.9284 155.332 98.9284H156.996C157.694 98.9284 158.26 98.3558 158.26 97.6484C158.26 96.9411 157.661 96.3684 156.996 96.3684Z" fill="url(#paint12_radial_3004_16751)"/>
<defs>
<filter id="filter0_d_3004_16751" x="0.5" y="0" width="290" height="266" filterUnits="userSpaceOnUse" color-interpolation-filters="sRGB">
<feFlood flood-opacity="0" result="BackgroundImageFix"/>
<feColorMatrix in="SourceAlpha" type="matrix" values="0 0 0 0 0 0 0 0 0 0 0 0 0 0 0 0 0 0 127 0" result="hardAlpha"/>
<feOffset/>
<feGaussianBlur stdDeviation="30"/>
<feComposite in2="hardAlpha" operator="out"/>
<feColorMatrix type="matrix" values="0 0 0 0 0 0 0 0 0 0 0 0 0 0 0 0 0 0 0.15 0"/>
<feBlend mode="normal" in2="BackgroundImageFix" result="effect1_dropShadow_3004_16751"/>
<feBlend mode="normal" in="SourceGraphic" in2="effect1_dropShadow_3004_16751" result="shape"/>
</filter>
<radialGradient id="paint0_radial_3004_16751" cx="0" cy="0" r="1" gradientUnits="userSpaceOnUse" gradientTransform="translate(117.5 79.9999) rotate(69.6361) scale(122.133 534.035)">
<stop stop-color="#7B61FF"/>
<stop offset="1" stop-color="#018BF3"/>
</radialGradient>
<radialGradient id="paint1_radial_3004_16751" cx="0" cy="0" r="1" gradientUnits="userSpaceOnUse" gradientTransform="translate(117.5 79.9999) rotate(69.6361) scale(122.133 534.035)">
<stop stop-color="#7B61FF"/>
<stop offset="1" stop-color="#018BF3"/>
</radialGradient>
<radialGradient id="paint2_radial_3004_16751" cx="0" cy="0" r="1" gradientUnits="userSpaceOnUse" gradientTransform="translate(117.5 79.9999) rotate(69.6361) scale(122.133 534.035)">
<stop stop-color="#7B61FF"/>
<stop offset="1" stop-color="#018BF3"/>
</radialGradient>
<radialGradient id="paint3_radial_3004_16751" cx="0" cy="0" r="1" gradientUnits="userSpaceOnUse" gradientTransform="translate(117.5 79.9999) rotate(69.6361) scale(122.133 534.035)">
<stop stop-color="#7B61FF"/>
<stop offset="1" stop-color="#018BF3"/>
</radialGradient>
<radialGradient id="paint4_radial_3004_16751" cx="0" cy="0" r="1" gradientUnits="userSpaceOnUse" gradientTransform="translate(117.5 79.9999) rotate(69.6361) scale(122.133 534.035)">
<stop stop-color="#7B61FF"/>
<stop offset="1" stop-color="#018BF3"/>
</radialGradient>
<radialGradient id="paint5_radial_3004_16751" cx="0" cy="0" r="1" gradientUnits="userSpaceOnUse" gradientTransform="translate(117.5 79.9999) rotate(69.6361) scale(122.133 534.035)">
<stop stop-color="#7B61FF"/>
<stop offset="1" stop-color="#018BF3"/>
</radialGradient>
<radialGradient id="paint6_radial_3004_16751" cx="0" cy="0" r="1" gradientUnits="userSpaceOnUse" gradientTransform="translate(117.5 79.9999) rotate(69.6361) scale(122.133 534.035)">
<stop stop-color="#7B61FF"/>
<stop offset="1" stop-color="#018BF3"/>
</radialGradient>
<radialGradient id="paint7_radial_3004_16751" cx="0" cy="0" r="1" gradientUnits="userSpaceOnUse" gradientTransform="translate(117.5 79.9999) rotate(69.6361) scale(122.133 534.035)">
<stop stop-color="#7B61FF"/>
<stop offset="1" stop-color="#018BF3"/>
</radialGradient>
<radialGradient id="paint8_radial_3004_16751" cx="0" cy="0" r="1" gradientUnits="userSpaceOnUse" gradientTransform="translate(117.5 79.9999) rotate(69.6361) scale(122.133 534.035)">
<stop stop-color="#7B61FF"/>
<stop offset="1" stop-color="#018BF3"/>
</radialGradient>
<radialGradient id="paint9_radial_3004_16751" cx="0" cy="0" r="1" gradientUnits="userSpaceOnUse" gradientTransform="translate(117.5 79.9999) rotate(69.6361) scale(122.133 534.035)">
<stop stop-color="#7B61FF"/>
<stop offset="1" stop-color="#018BF3"/>
</radialGradient>
<radialGradient id="paint10_radial_3004_16751" cx="0" cy="0" r="1" gradientUnits="userSpaceOnUse" gradientTransform="translate(117.5 79.9999) rotate(69.6361) scale(122.133 534.035)">
<stop stop-color="#7B61FF"/>
<stop offset="1" stop-color="#018BF3"/>
</radialGradient>
<radialGradient id="paint11_radial_3004_16751" cx="0" cy="0" r="1" gradientUnits="userSpaceOnUse" gradientTransform="translate(117.5 79.9999) rotate(69.6361) scale(122.133 534.035)">
<stop stop-color="#7B61FF"/>
<stop offset="1" stop-color="#018BF3"/>
</radialGradient>
<radialGradient id="paint12_radial_3004_16751" cx="0" cy="0" r="1" gradientUnits="userSpaceOnUse" gradientTransform="translate(117.5 79.9999) rotate(69.6361) scale(122.133 534.035)">
<stop stop-color="#7B61FF"/>
<stop offset="1" stop-color="#018BF3"/>
</radialGradient>
</defs>
</svg>
