<svg width="291" height="266" viewBox="0 0 291 266" fill="none" xmlns="http://www.w3.org/2000/svg">
<g filter="url(#filter0_d_3004_16730)">
<rect x="60.5" y="60" width="170" height="146" rx="16" fill="#232940"/>
</g>
<path d="M183.754 157H178.297V148.175C178.297 147.468 177.724 146.895 177.017 146.895H173.042C172.503 144.942 170.718 143.527 168.596 143.527H164.823V138.845L177.589 132.445C178.027 132.243 178.297 131.805 178.297 131.299C178.297 130.794 178.027 130.39 177.589 130.154L164.823 123.754V117.859C164.823 117.152 164.251 116.579 163.543 116.579H154.516C153.977 114.626 152.192 113.211 150.069 113.211H146.297V109H161.859C162.566 109 163.139 108.428 163.139 107.72V94.2468C163.139 93.5394 162.566 92.9668 161.859 92.9668H128.175C127.467 93.0005 126.895 93.5731 126.895 94.2805V107.754C126.895 108.462 127.467 109.034 128.175 109.034H143.737V113.211H139.964C137.842 113.211 136.091 114.626 135.518 116.579H126.491C125.783 116.579 125.211 117.152 125.211 117.859V123.384C118.507 123.754 113.421 127.123 113.421 131.333C113.421 135.544 118.507 138.912 125.211 139.283V143.527H121.438C119.316 143.527 117.564 144.942 116.992 146.895H113.017C112.309 146.895 111.737 147.468 111.737 148.175V157.405C107.829 158.449 105 161.447 105 165.017C105 169.43 109.345 173.034 114.701 173.034C120.057 173.034 124.402 169.43 124.402 165.017C124.402 160.605 120.023 157 114.701 157C114.566 157 114.432 157 114.297 157.034V149.422H117.025C117.564 151.375 119.349 152.79 121.472 152.79H131.577C133.699 152.79 135.451 151.375 136.023 149.422H138.752V157.573L129.219 163.939C128.882 164.175 128.646 164.579 128.646 164.984C128.646 165.388 128.848 165.792 129.219 166.028L139.324 172.765C139.526 172.899 139.796 172.967 140.032 172.967C140.267 172.967 140.537 172.899 140.739 172.765L150.844 166.028C151.181 165.792 151.417 165.388 151.417 164.984C151.417 164.579 151.215 164.175 150.844 163.939L141.312 157.573V148.142C141.312 147.434 140.739 146.862 140.032 146.862H135.956C135.417 144.908 133.632 143.493 131.509 143.493H127.737V139.249C134.44 138.878 139.526 135.51 139.526 131.299C139.526 127.089 134.44 123.72 127.737 123.35V119.106H135.518C136.057 121.059 137.842 122.474 139.964 122.474H150.069C152.192 122.474 153.943 121.059 154.516 119.106H162.263V123.788L149.497 130.188C149.059 130.39 148.789 130.828 148.789 131.333C148.789 131.838 149.059 132.243 149.497 132.478L162.263 138.878V143.527H158.491C155.931 143.527 153.842 145.615 153.842 148.175C153.842 150.735 155.931 152.824 158.491 152.824H168.596C170.718 152.824 172.469 151.409 173.042 149.455H175.771V157H156.84C156.133 157 155.56 157.573 155.56 158.28V171.754C155.56 172.462 156.133 173.034 156.84 173.034H183.787C184.495 173.034 185.067 172.462 185.067 171.754V158.28C185 157.573 184.427 157 183.754 157ZM129.421 95.5268H160.579V106.474H129.421V95.5268ZM114.701 170.474C110.76 170.474 107.56 168.015 107.56 165.017C107.56 162.019 110.76 159.56 114.701 159.56C118.642 159.56 121.842 162.019 121.842 165.017C121.842 168.015 118.642 170.474 114.701 170.474ZM139.964 170.205L132.149 164.984L139.964 159.763L147.779 164.984L139.964 170.205ZM133.632 148.175C133.632 149.32 132.688 150.264 131.543 150.264H121.438C120.293 150.264 119.349 149.32 119.349 148.175C119.349 147.03 120.293 146.087 121.438 146.087H131.543C132.688 146.053 133.632 146.996 133.632 148.175ZM126.491 136.79C120.798 136.79 115.981 134.297 115.981 131.333C115.981 128.369 120.798 125.876 126.491 125.876C132.183 125.876 137 128.335 137 131.333C137 134.331 132.183 136.79 126.491 136.79ZM137.842 117.859C137.842 116.714 138.785 115.771 139.931 115.771H150.036C151.181 115.771 152.124 116.714 152.124 117.859C152.124 119.005 151.181 119.948 150.036 119.948H139.931C138.785 119.948 137.842 119.005 137.842 117.859ZM163.543 125.977L174.187 131.299L163.543 136.622L152.899 131.299L163.543 125.977ZM156.368 148.175C156.368 147.03 157.312 146.087 158.457 146.087H168.562C169.707 146.087 170.651 147.03 170.651 148.175C170.651 149.32 169.707 150.264 168.562 150.264H158.457C157.312 150.264 156.368 149.32 156.368 148.175ZM182.474 170.474H158.053V159.527H182.474V170.474Z" fill="url(#paint0_radial_3004_16730)"/>
<path d="M139.964 99.7373H134.912C134.204 99.7373 133.632 100.31 133.632 101.017C133.632 101.725 134.204 102.297 134.912 102.297H139.964C140.672 102.297 141.244 101.725 141.244 101.017C141.244 100.31 140.638 99.7373 139.964 99.7373Z" fill="url(#paint1_radial_3004_16730)"/>
<path d="M151.754 102.264H155.122C155.829 102.264 156.402 101.691 156.402 100.984C156.402 100.276 155.829 99.7036 155.122 99.7036H151.754C151.046 99.7036 150.474 100.276 150.474 100.984C150.474 101.691 151.046 102.264 151.754 102.264Z" fill="url(#paint2_radial_3004_16730)"/>
<path d="M146.701 102.264C147.408 102.264 147.981 101.691 147.981 100.984C147.981 100.276 147.408 99.7036 146.701 99.7036H145.017C144.309 99.7036 143.737 100.276 143.737 100.984C143.737 101.691 144.309 102.264 145.017 102.264H146.701Z" fill="url(#paint3_radial_3004_16730)"/>
<path d="M175.333 163.737C174.625 163.737 174.053 164.31 174.053 165.017C174.053 165.725 174.625 166.297 175.333 166.297H177.017C177.724 166.297 178.297 165.725 178.297 165.017C178.297 164.31 177.724 163.737 177.017 163.737H175.333Z" fill="url(#paint4_radial_3004_16730)"/>
<path d="M170.28 163.737H163.543C162.836 163.737 162.263 164.31 162.263 165.017C162.263 165.725 162.836 166.297 163.543 166.297H170.28C170.987 166.297 171.56 165.725 171.56 165.017C171.56 164.31 170.954 163.737 170.28 163.737Z" fill="url(#paint5_radial_3004_16730)"/>
<defs>
<filter id="filter0_d_3004_16730" x="0.5" y="0" width="290" height="266" filterUnits="userSpaceOnUse" color-interpolation-filters="sRGB">
<feFlood flood-opacity="0" result="BackgroundImageFix"/>
<feColorMatrix in="SourceAlpha" type="matrix" values="0 0 0 0 0 0 0 0 0 0 0 0 0 0 0 0 0 0 127 0" result="hardAlpha"/>
<feOffset/>
<feGaussianBlur stdDeviation="30"/>
<feComposite in2="hardAlpha" operator="out"/>
<feColorMatrix type="matrix" values="0 0 0 0 0 0 0 0 0 0 0 0 0 0 0 0 0 0 0.15 0"/>
<feBlend mode="normal" in2="BackgroundImageFix" result="effect1_dropShadow_3004_16730"/>
<feBlend mode="normal" in="SourceGraphic" in2="effect1_dropShadow_3004_16730" result="shape"/>
</filter>
<radialGradient id="paint0_radial_3004_16730" cx="0" cy="0" r="1" gradientUnits="userSpaceOnUse" gradientTransform="translate(115.135 79.9558) rotate(69.3999) scale(122.424 540.417)">
<stop stop-color="#7B61FF"/>
<stop offset="1" stop-color="#018BF3"/>
</radialGradient>
<radialGradient id="paint1_radial_3004_16730" cx="0" cy="0" r="1" gradientUnits="userSpaceOnUse" gradientTransform="translate(115.135 79.9558) rotate(69.3999) scale(122.424 540.417)">
<stop stop-color="#7B61FF"/>
<stop offset="1" stop-color="#018BF3"/>
</radialGradient>
<radialGradient id="paint2_radial_3004_16730" cx="0" cy="0" r="1" gradientUnits="userSpaceOnUse" gradientTransform="translate(115.135 79.9558) rotate(69.3999) scale(122.424 540.417)">
<stop stop-color="#7B61FF"/>
<stop offset="1" stop-color="#018BF3"/>
</radialGradient>
<radialGradient id="paint3_radial_3004_16730" cx="0" cy="0" r="1" gradientUnits="userSpaceOnUse" gradientTransform="translate(115.135 79.9558) rotate(69.3999) scale(122.424 540.417)">
<stop stop-color="#7B61FF"/>
<stop offset="1" stop-color="#018BF3"/>
</radialGradient>
<radialGradient id="paint4_radial_3004_16730" cx="0" cy="0" r="1" gradientUnits="userSpaceOnUse" gradientTransform="translate(115.135 79.9558) rotate(69.3999) scale(122.424 540.417)">
<stop stop-color="#7B61FF"/>
<stop offset="1" stop-color="#018BF3"/>
</radialGradient>
<radialGradient id="paint5_radial_3004_16730" cx="0" cy="0" r="1" gradientUnits="userSpaceOnUse" gradientTransform="translate(115.135 79.9558) rotate(69.3999) scale(122.424 540.417)">
<stop stop-color="#7B61FF"/>
<stop offset="1" stop-color="#018BF3"/>
</radialGradient>
</defs>
</svg>
