<svg width="291" height="266" viewBox="0 0 291 266" fill="none" xmlns="http://www.w3.org/2000/svg">
<g filter="url(#filter0_d_3004_16737)">
<rect x="60.5" y="60" width="170" height="146" rx="16" fill="#232940"/>
</g>
<path d="M186 107.754C186 104.284 183.171 101.421 179.667 101.421H179.263V94.28C179.263 93.5726 178.691 93 177.983 93H113.983C113.309 93 112.737 93.5726 112.737 94.28V101.421H112.333C108.829 101.421 106 104.251 106 107.754V153.227C106 156.697 108.829 159.56 112.333 159.56H137.663L136.585 163.737H134.194C131.634 163.737 129.545 165.825 129.545 168.385V171.754C129.545 172.461 130.118 173.034 130.825 173.034H161.141C161.848 173.034 162.421 172.461 162.421 171.754V168.385C162.421 165.825 160.333 163.737 157.773 163.737H155.381L154.337 159.526H179.667C183.137 159.526 186 156.697 186 153.194V107.754ZM183.474 153.227C183.474 155.316 181.789 157 179.701 157H112.333C110.244 157 108.56 155.316 108.56 153.227V151.139H183.474V153.227ZM152.787 163.737H139.213L140.257 159.526H151.743L152.787 163.737ZM159.895 168.385V170.474H132.105V168.385C132.105 167.24 133.048 166.297 134.194 166.297H157.773C158.952 166.263 159.895 167.206 159.895 168.385ZM108.526 107.754C108.526 105.665 110.211 103.981 112.299 103.981H112.737V148.579H108.526V107.754ZM115.263 95.5263H176.737V106.474H115.263V95.5263ZM183.474 148.579H179.263V103.947H179.667C181.756 103.947 183.44 105.632 183.44 107.72V148.579H183.474ZM176.737 148.579H172.526V116.175C172.526 115.467 171.954 114.895 171.246 114.895H120.72C120.013 114.895 119.44 115.467 119.44 116.175V148.579H115.263V109H176.737V148.579ZM122 124.158H126.211V128.368H122V124.158ZM128.737 124.158H136.316V128.368H128.737V124.158ZM128.737 130.895H136.316V135.105H128.737V130.895ZM138.842 130.895H146.421V135.105H138.842V130.895ZM148.947 130.895H156.526V135.105H148.947V130.895ZM156.526 128.368H148.947V124.158H156.526V128.368ZM146.421 128.368H138.842V124.158H146.421V128.368ZM170 135.105H159.053V130.895H170V135.105ZM170 128.368H159.053V124.158H170V128.368ZM122 130.895H126.211V135.105H122V130.895ZM122 137.632H126.211V141.842H122V137.632ZM128.737 137.632H136.316V141.842H128.737V137.632ZM138.842 137.632H146.421V141.842H138.842V137.632ZM148.947 137.632H156.526V141.842H148.947V137.632ZM159.053 137.632H170V141.842H159.053V137.632ZM170 121.632H159.053V117.421H170V121.632ZM156.526 121.632H148.947V117.421H156.526V121.632ZM146.421 121.632H138.842V117.421H146.421V121.632ZM136.316 121.632H128.737V117.421H136.316V121.632ZM126.211 121.632H122V117.421H126.211V121.632ZM122 144.368H126.211V148.579H122V144.368ZM128.737 144.368H136.316V148.579H128.737V144.368ZM138.842 144.368H146.421V148.579H138.842V144.368ZM148.947 144.368H156.526V148.579H148.947V144.368ZM159.053 144.368H170V148.579H159.053V144.368Z" fill="url(#paint0_radial_3004_16737)"/>
<path d="M127.491 102.263H129.175C129.714 102.263 130.185 101.927 130.354 101.421C130.387 101.287 130.455 101.152 130.455 101.017C130.455 100.31 129.882 99.737 129.175 99.737H127.491C126.783 99.737 126.211 100.31 126.211 101.017C126.211 101.152 126.244 101.32 126.312 101.421C126.48 101.927 126.918 102.263 127.491 102.263Z" fill="url(#paint1_radial_3004_16737)"/>
<path d="M134.227 102.263H135.912C136.45 102.263 136.922 101.927 137.09 101.421C137.124 101.287 137.192 101.152 137.192 101.017C137.192 100.31 136.619 99.737 135.912 99.737H134.227C133.52 99.737 132.947 100.31 132.947 101.017C132.947 101.152 132.981 101.32 133.048 101.421C133.217 101.927 133.655 102.263 134.227 102.263Z" fill="url(#paint2_radial_3004_16737)"/>
<path d="M120.754 102.263H122.438C122.977 102.263 123.448 101.927 123.617 101.421C123.651 101.287 123.718 101.152 123.718 101.017C123.718 100.31 123.145 99.737 122.438 99.737H120.754C120.046 99.737 119.474 100.31 119.474 101.017C119.474 101.152 119.507 101.32 119.575 101.421C119.743 101.927 120.181 102.263 120.754 102.263Z" fill="url(#paint3_radial_3004_16737)"/>
<path d="M162.859 102.263H171.28C171.819 102.263 172.29 101.927 172.459 101.421C172.493 101.287 172.56 101.152 172.56 101.017C172.56 100.31 171.987 99.737 171.28 99.737H162.859C162.152 99.737 161.579 100.31 161.579 101.017C161.579 101.152 161.613 101.32 161.68 101.421C161.848 101.927 162.286 102.263 162.859 102.263Z" fill="url(#paint4_radial_3004_16737)"/>
<defs>
<filter id="filter0_d_3004_16737" x="0.5" y="0" width="290" height="266" filterUnits="userSpaceOnUse" color-interpolation-filters="sRGB">
<feFlood flood-opacity="0" result="BackgroundImageFix"/>
<feColorMatrix in="SourceAlpha" type="matrix" values="0 0 0 0 0 0 0 0 0 0 0 0 0 0 0 0 0 0 127 0" result="hardAlpha"/>
<feOffset/>
<feGaussianBlur stdDeviation="30"/>
<feComposite in2="hardAlpha" operator="out"/>
<feColorMatrix type="matrix" values="0 0 0 0 0 0 0 0 0 0 0 0 0 0 0 0 0 0 0.15 0"/>
<feBlend mode="normal" in2="BackgroundImageFix" result="effect1_dropShadow_3004_16737"/>
<feBlend mode="normal" in="SourceGraphic" in2="effect1_dropShadow_3004_16737" result="shape"/>
</filter>
<radialGradient id="paint0_radial_3004_16737" cx="0" cy="0" r="1" gradientUnits="userSpaceOnUse" gradientTransform="translate(116.127 79.9945) rotate(69.4078) scale(122.367 539.991)">
<stop stop-color="#7B61FF"/>
<stop offset="1" stop-color="#018BF3"/>
</radialGradient>
<radialGradient id="paint1_radial_3004_16737" cx="0" cy="0" r="1" gradientUnits="userSpaceOnUse" gradientTransform="translate(116.127 79.9945) rotate(69.4078) scale(122.367 539.991)">
<stop stop-color="#7B61FF"/>
<stop offset="1" stop-color="#018BF3"/>
</radialGradient>
<radialGradient id="paint2_radial_3004_16737" cx="0" cy="0" r="1" gradientUnits="userSpaceOnUse" gradientTransform="translate(116.127 79.9945) rotate(69.4078) scale(122.367 539.991)">
<stop stop-color="#7B61FF"/>
<stop offset="1" stop-color="#018BF3"/>
</radialGradient>
<radialGradient id="paint3_radial_3004_16737" cx="0" cy="0" r="1" gradientUnits="userSpaceOnUse" gradientTransform="translate(116.127 79.9945) rotate(69.4078) scale(122.367 539.991)">
<stop stop-color="#7B61FF"/>
<stop offset="1" stop-color="#018BF3"/>
</radialGradient>
<radialGradient id="paint4_radial_3004_16737" cx="0" cy="0" r="1" gradientUnits="userSpaceOnUse" gradientTransform="translate(116.127 79.9945) rotate(69.4078) scale(122.367 539.991)">
<stop stop-color="#7B61FF"/>
<stop offset="1" stop-color="#018BF3"/>
</radialGradient>
</defs>
</svg>
