<svg width="291" height="266" viewBox="0 0 291 266" fill="none" xmlns="http://www.w3.org/2000/svg">
<g filter="url(#filter0_d_3004_16744)">
<rect x="60.5" y="60" width="170" height="146" rx="16" fill="#232940"/>
</g>
<path fill-rule="evenodd" clip-rule="evenodd" d="M190.991 147.954H182.793V141.304C182.793 140.53 182.175 139.757 181.246 139.757H147.535V133.724H149.082C149.7 133.724 150.318 133.262 150.474 132.64L151.558 128.928C153.412 128.465 155.115 127.692 156.662 126.763L160.063 128.617C160.681 128.928 161.454 128.772 161.917 128.306L166.247 123.976C166.709 123.513 166.865 122.74 166.558 122.122L164.704 118.721C165.633 117.174 166.406 115.32 166.869 113.617L170.581 112.533C171.199 112.377 171.665 111.759 171.665 111.141V105.109C171.665 104.491 171.203 103.873 170.581 103.717L166.869 102.633C166.406 100.779 165.633 99.076 164.704 97.529L166.558 94.1281C166.713 93.825 166.558 93.0515 166.091 92.589L161.761 88.259C161.299 87.7965 160.525 87.641 159.907 87.948L156.506 89.802C154.959 88.873 153.105 88.0995 151.403 87.637L150.318 83.925C150.318 83.4625 149.7 83 149.082 83H142.894C142.276 83 141.658 83.4625 141.503 84.0845L140.418 87.7965C138.564 88.259 136.862 89.0325 135.315 89.9615L131.914 88.1075C131.296 87.7965 130.522 87.952 130.06 88.4185L125.885 92.589C125.423 93.0515 125.267 93.825 125.574 94.443L127.428 97.844C126.499 99.391 125.726 101.245 125.263 102.948L121.551 104.032C120.933 104.187 120.467 104.805 120.467 105.424V111.456C120.467 112.074 120.929 112.692 121.551 112.848L125.263 113.932C125.726 115.786 126.499 117.489 127.428 119.036L125.574 122.437C125.263 123.055 125.419 123.828 125.885 124.291L130.215 128.621C130.678 129.083 131.451 129.239 132.069 128.932L135.47 127.078C137.017 128.007 138.871 128.78 140.574 129.243L141.658 132.955C141.814 133.573 142.432 134.039 143.05 134.039H144.597V140.072L110.726 140.068C109.952 140.068 109.179 140.686 109.179 141.615V147.954H100.985C98.5095 147.954 96.5 149.964 96.5 152.44V177.495C96.5 179.967 98.5096 181.976 100.985 181.976H120.316C122.792 181.976 124.801 179.967 124.801 177.491V152.44C124.801 149.964 122.791 147.954 120.316 147.954H112.118V142.851H144.442V147.954H136.244C133.768 147.954 131.759 149.964 131.759 152.44V177.495C131.759 179.971 133.768 181.98 136.244 181.98H155.574C158.05 181.98 160.06 179.971 160.06 177.495L160.064 152.44C160.064 149.964 158.054 147.954 155.578 147.954H147.536V142.851H179.86V147.954H171.662C169.186 147.954 167.177 149.964 167.177 152.44V177.495C167.177 179.971 169.187 181.98 171.662 181.98H190.993C193.469 181.98 195.478 179.971 195.478 177.495V152.44C195.478 149.964 193.468 147.954 190.993 147.954L190.991 147.954ZM143.049 127.229C142.894 126.766 142.587 126.3 141.969 126.3C139.959 125.837 137.95 125.064 136.092 123.824C135.629 123.513 135.007 123.513 134.545 123.824L131.451 125.526L128.823 122.899L130.526 119.805C130.837 119.342 130.837 118.72 130.526 118.258C129.441 116.404 128.516 114.546 128.05 112.381C127.894 111.918 127.587 111.452 126.965 111.296L123.564 110.367V106.5L126.965 105.571C127.428 105.415 127.894 104.953 128.05 104.486C128.512 102.477 129.286 100.467 130.526 98.6094C130.837 98.1469 130.837 97.5249 130.526 97.0624L128.823 93.9684L131.451 91.3409L134.545 93.0435C135.007 93.3545 135.629 93.3545 136.092 93.0435C137.946 91.959 139.804 91.0339 141.969 90.5674C142.431 90.412 142.898 90.1049 143.053 89.4829L143.982 86.082H147.85L148.779 89.4829C148.934 89.9454 149.397 90.412 149.863 90.5674C151.873 91.0299 153.882 91.8034 155.74 93.0435C156.203 93.3545 156.825 93.3545 157.287 93.0435L160.381 91.3409L163.152 93.8249L161.45 96.9189C161.139 97.3814 161.139 98.0034 161.45 98.4659C162.534 100.32 163.459 102.178 163.926 104.343C164.081 104.805 164.388 105.272 165.01 105.427L168.411 106.356V110.224L165.01 111.153C164.548 111.308 164.081 111.771 163.926 112.237C163.463 114.247 162.69 116.256 161.45 118.114C161.139 118.577 161.139 119.199 161.45 119.661L163.152 122.755L160.525 125.383L157.431 123.68C156.968 123.369 156.346 123.369 155.884 123.68C154.03 124.765 152.172 125.69 150.007 126.156C149.544 126.312 149.078 126.619 148.922 127.241L147.993 130.642H144.126L143.049 127.229ZM121.861 152.439V177.494C121.861 178.268 121.243 179.041 120.314 179.041L100.984 179.037C100.211 179.037 99.4374 178.419 99.4374 177.49V152.439C99.4374 151.666 100.055 150.892 100.984 150.892H120.314C121.243 150.892 121.861 151.51 121.861 152.439ZM157.124 152.439V177.494C157.124 178.268 156.506 179.041 155.577 179.041L136.244 179.037C135.47 179.037 134.697 178.419 134.697 177.49V152.439C134.697 151.666 135.315 150.892 136.244 150.892H155.574C156.507 150.892 157.125 151.51 157.125 152.439L157.124 152.439ZM192.537 177.49C192.537 178.264 191.919 179.037 190.99 179.037H171.66C170.886 179.037 170.113 178.419 170.113 177.49V152.439C170.113 151.666 170.731 150.892 171.66 150.892H190.99C191.764 150.892 192.537 151.51 192.537 152.439V177.49ZM156.969 110.99C158.823 102.792 151.554 95.5241 143.361 97.5328C139.186 98.4618 135.937 101.863 135.008 106.037C133.305 114.235 140.422 121.348 148.616 119.494C152.794 118.414 156.04 115.168 156.969 110.99ZM137.946 106.508C138.564 103.57 141.04 101.094 143.978 100.32C150.011 98.9287 155.421 104.188 154.03 110.216C153.412 113.155 150.936 115.631 147.842 116.404C141.969 117.796 136.554 112.692 137.946 106.508H137.946ZM176.142 171.463H186.505C187.278 171.463 188.052 172.081 188.052 173.01C188.052 173.939 187.278 174.557 186.505 174.557H176.142C175.214 174.557 174.596 173.784 174.596 173.01C174.596 172.081 175.369 171.463 176.142 171.463ZM186.505 163.421H176.142C175.369 163.421 174.596 164.039 174.596 164.968C174.596 165.897 175.214 166.515 176.142 166.515H186.505C187.278 166.515 188.052 165.897 188.052 164.968C188.052 164.039 187.278 163.421 186.505 163.421ZM176.142 155.378H186.505C187.278 155.378 188.052 155.996 188.052 156.925C188.052 157.854 187.278 158.472 186.505 158.472H176.142C175.214 158.472 174.596 157.854 174.596 156.925C174.596 155.996 175.369 155.378 176.142 155.378ZM115.829 171.463H105.471C104.697 171.463 103.924 172.081 103.924 173.01C103.924 173.784 104.542 174.557 105.471 174.557H115.833C116.607 174.557 117.38 173.939 117.38 173.01C117.376 172.081 116.758 171.463 115.829 171.463H115.829ZM105.471 163.421H115.829H115.829C116.758 163.421 117.376 164.039 117.38 164.968C117.38 165.897 116.607 166.515 115.833 166.515H105.471C104.542 166.515 103.924 165.897 103.924 164.968C103.924 164.039 104.697 163.421 105.471 163.421ZM103.924 156.922C103.924 157.696 104.542 158.469 105.471 158.469H115.833C116.606 158.469 117.38 157.851 117.38 156.922C117.38 155.993 116.762 155.375 115.833 155.375L105.471 155.379C104.697 155.379 103.924 155.997 103.924 156.922ZM140.884 171.463H151.246C152.02 171.463 152.638 172.081 152.793 173.01C152.793 173.939 152.02 174.557 151.246 174.557H140.884C139.955 174.557 139.337 173.784 139.337 173.01C139.337 172.081 140.111 171.463 140.884 171.463ZM151.246 163.421H140.884C140.111 163.421 139.337 164.039 139.337 164.968C139.337 165.897 139.955 166.515 140.884 166.515H151.246C152.02 166.515 152.793 165.897 152.793 164.968C152.793 164.039 152.02 163.421 151.246 163.421ZM140.884 158.469C139.955 158.469 139.337 157.696 139.337 156.922C139.337 155.997 139.955 155.379 140.884 155.375H151.246C152.175 155.375 152.793 155.993 152.793 156.922C152.793 157.851 152.02 158.469 151.246 158.469H140.884ZM178.156 114.858C179.085 114.858 179.703 114.084 179.703 113.155L179.241 109.599C186.047 115.165 187.127 125.064 181.868 131.866C181.406 132.484 181.557 133.413 182.179 134.031C182.797 134.494 183.726 134.342 184.344 133.72C190.532 125.523 189.292 113.769 181.25 107.274L184.651 106.811C185.425 106.656 186.043 105.882 185.887 105.109C185.732 104.335 184.958 103.717 184.185 103.873L176.92 104.961C176.458 104.961 176.147 105.272 175.991 105.579C175.68 105.89 175.68 106.353 175.68 106.664L176.765 113.777C176.765 114.395 177.383 114.857 178.156 114.857L178.156 114.858ZM110.263 132.026C110.725 132.8 110.57 133.729 109.952 134.191L109.952 134.192C109.334 134.654 108.409 134.499 108.094 133.729C101.754 125.532 103.146 113.778 111.188 107.283L107.787 106.82C107.013 106.665 106.395 105.891 106.551 105.118C106.706 104.344 107.48 103.726 108.253 103.882L115.366 104.966L115.378 104.972C115.685 105.126 115.988 105.277 116.295 105.584C116.606 105.895 116.606 106.206 116.606 106.669L115.522 113.782C115.366 114.555 114.748 115.018 113.975 115.018C113.046 115.018 112.272 114.244 112.428 113.315L112.89 109.759C106.088 115.168 104.848 125.069 110.263 132.026Z" fill="url(#paint0_radial_3004_16744)"/>
<defs>
<filter id="filter0_d_3004_16744" x="0.5" y="0" width="290" height="266" filterUnits="userSpaceOnUse" color-interpolation-filters="sRGB">
<feFlood flood-opacity="0" result="BackgroundImageFix"/>
<feColorMatrix in="SourceAlpha" type="matrix" values="0 0 0 0 0 0 0 0 0 0 0 0 0 0 0 0 0 0 127 0" result="hardAlpha"/>
<feOffset/>
<feGaussianBlur stdDeviation="30"/>
<feComposite in2="hardAlpha" operator="out"/>
<feColorMatrix type="matrix" values="0 0 0 0 0 0 0 0 0 0 0 0 0 0 0 0 0 0 0.15 0"/>
<feBlend mode="normal" in2="BackgroundImageFix" result="effect1_dropShadow_3004_16744"/>
<feBlend mode="normal" in="SourceGraphic" in2="effect1_dropShadow_3004_16744" result="shape"/>
</filter>
<radialGradient id="paint0_radial_3004_16744" cx="0" cy="0" r="1" gradientUnits="userSpaceOnUse" gradientTransform="translate(109.029 66.9156) rotate(69.4004) scale(151.342 668.057)">
<stop stop-color="#7B61FF"/>
<stop offset="1" stop-color="#018BF3"/>
</radialGradient>
</defs>
</svg>
